RobotoExtremo-opsz144-wght400-wdth151-YOPQmin.ufo
<glyph name="exclam" format="2">
  <advance width="616"/>
  <unicode hex="0021"/>
  <outline>
    <contour>
      <point x="220.0" y="65.03703703703704" type="qcurve" smooth="yes"/>
      <point x="220.0" y="97.37037037037037"/>
      <point x="266.0" y="141.07407407407408"/>
      <point x="308.0" y="141.07407407407408" type="qcurve" smooth="yes"/>
      <point x="350.0" y="141.07407407407408"/>
      <point x="396.0" y="97.37037037037037"/>
      <point x="396.0" y="65.03703703703704" type="qcurve" smooth="yes"/>
      <point x="396.0" y="31.703703703703702"/>
      <point x="350.0" y="-12.0"/>
      <point x="308.0" y="-12.0" type="qcurve" smooth="yes"/>
      <point x="266.0" y="-12.0"/>
      <point x="220.0" y="32.7037037037037"/>
    </contour>
    <contour>
      <point x="261.0" y="387.8888888888889" type="line"/>
      <point x="252.0" y="1456.0" type="line"/>
      <point x="365.0" y="1456.0" type="line"/>
      <point x="355.0" y="387.8888888888889" type="line"/>
    </contour>
  </outline>
</glyph>
<glyph name="numbersign" format="2">
  <advance width="1415"/>
  <unicode hex="0023"/>
  <outline>
    <contour>
      <point x="195.0" y="-20.0" type="line"/>
      <point x="639.0" y="1475.7962962962963" type="line"/>
      <point x="732.0" y="1475.7962962962963" type="line"/>
      <point x="288.0" y="-20.0" type="line"/>
    </contour>
    <contour>
      <point x="682.0" y="-20.0" type="line"/>
      <point x="1127.0" y="1475.7962962962963" type="line"/>
      <point x="1219.0" y="1475.7962962962963" type="line"/>
      <point x="776.0" y="-20.0" type="line"/>
    </contour>
    <contour>
      <point x="79.0" y="450.0" type="line"/>
      <point x="79.0" y="518.8888888888889" type="line"/>
      <point x="1263.0" y="518.8888888888889" type="line"/>
      <point x="1263.0" y="450.0" type="line"/>
    </contour>
    <contour>
      <point x="157.09259259259258" y="930.0185185185185" type="line"/>
      <point x="157.09259259259258" y="998.9074074074074" type="line"/>
      <point x="1340.0925925925926" y="998.9074074074074" type="line"/>
      <point x="1340.0925925925926" y="930.0185185185185" type="line"/>
    </contour>
  </outline>
</glyph>
<glyph name="ampersand" format="2">
  <advance width="1334"/>
  <unicode hex="0026"/>
  <outline>
    <contour>
      <point x="110.0" y="370.0" type="qcurve" smooth="yes"/>
      <point x="110.0" y="502.925925925926"/>
      <point x="285.0" y="697.6481481481482"/>
      <point x="488.0" y="804.8333333333334" type="qcurve" smooth="yes"/>
      <point x="634.0" y="879.7777777777778" type="line" smooth="yes"/>
      <point x="724.0" y="927.7777777777778"/>
      <point x="845.0" y="1080.9259259259259"/>
      <point x="845.0" y="1174.037037037037" type="qcurve" smooth="yes"/>
      <point x="845.0" y="1272.148148148148"/>
      <point x="707.0" y="1410.7777777777778"/>
      <point x="603.0" y="1410.7777777777778" type="qcurve" smooth="yes"/>
      <point x="502.0" y="1410.7777777777778"/>
      <point x="351.0" y="1276.148148148148"/>
      <point x="351.0" y="1153.0" type="qcurve" smooth="yes"/>
      <point x="351.0" y="1075.3703703703704"/>
      <point x="454.0" y="918.5"/>
      <point x="573.0" y="795.8703703703703" type="qcurve" smooth="yes"/>
      <point x="1364.0" y="0.0" type="line"/>
      <point x="1219.0" y="0.0" type="line"/>
      <point x="477.0" y="756.1481481481482" type="line" smooth="yes"/>
      <point x="338.0" y="899.5925925925926"/>
      <point x="242.0" y="1063.037037037037"/>
      <point x="242.0" y="1153.0" type="qcurve" smooth="yes"/>
      <point x="242.0" y="1304.0"/>
      <point x="444.0" y="1486.0"/>
      <point x="603.0" y="1486.0" type="qcurve" smooth="yes"/>
      <point x="762.0" y="1486.0"/>
      <point x="954.0" y="1315.0"/>
      <point x="954.0" y="1173.0" type="qcurve" smooth="yes"/>
      <point x="954.0" y="1074.0740740740741"/>
      <point x="809.0" y="889.074074074074"/>
      <point x="698.0" y="829.074074074074" type="qcurve" smooth="yes"/>
      <point x="569.0" y="762.1296296296297" type="line" smooth="yes"/>
      <point x="375.0" y="656.7222222222222"/>
      <point x="229.0" y="483.037037037037"/>
      <point x="229.0" y="372.0" type="qcurve" smooth="yes"/>
      <point x="229.0" y="232.85185185185185"/>
      <point x="439.0" y="55.22222222222223"/>
      <point x="594.0" y="55.22222222222223" type="qcurve" smooth="yes"/>
      <point x="852.0" y="55.22222222222223"/>
      <point x="1177.0" y="392.85185185185185"/>
      <point x="1177.0" y="674.0" type="qcurve"/>
      <point x="1285.0" y="674.0" type="line"/>
      <point x="1285.0" y="380.0"/>
      <point x="887.0" y="-20.0"/>
      <point x="594.0" y="-20.0" type="qcurve" smooth="yes"/>
      <point x="365.0" y="-20.0"/>
      <point x="110.0" y="197.96296296296296"/>
    </contour>
  </outline>
</glyph>
<glyph name="comma" format="2">
  <advance width="526"/>
  <unicode hex="002C"/>
  <outline>
    <contour>
      <point x="102.0" y="-140.0" type="line"/>
      <point x="168.0" y="-98.0"/>
      <point x="221.0" y="-11.0"/>
      <point x="221.0" y="61.0" type="qcurve" smooth="yes"/>
      <point x="221.0" y="156.0" type="line"/>
      <point x="336.0" y="156.0" type="line"/>
      <point x="336.0" y="61.0" type="line" smooth="yes"/>
      <point x="336.0" y="-32.0"/>
      <point x="236.0" y="-162.0"/>
      <point x="171.0" y="-197.0" type="qcurve"/>
    </contour>
  </outline>
</glyph>
<glyph name="hyphen" format="2">
  <advance width="718"/>
  <unicode hex="002D"/>
  <outline>
    <contour>
      <point x="65.92592592592592" y="586.0" type="line"/>
      <point x="65.92592592592592" y="694.0" type="line"/>
      <point x="653.925925925926" y="694.0" type="line"/>
      <point x="653.925925925926" y="586.0" type="line"/>
    </contour>
  </outline>
</glyph>
<glyph name="three" format="2">
  <advance width="1463"/>
  <unicode hex="0033"/>
  <outline>
    <contour>
      <point x="154.0" y="375.0" type="qcurve" smooth="yes"/>
      <point x="154.0" y="395.0" type="line"/>
      <point x="262.0" y="395.0" type="line"/>
      <point x="262.0" y="375.0" type="line" smooth="yes"/>
      <point x="262.0" y="215.8148148148148"/>
      <point x="502.0" y="50.0"/>
      <point x="709.0" y="50.0" type="qcurve" smooth="yes"/>
      <point x="908.0" y="50.0"/>
      <point x="1151.0" y="219.8148148148148"/>
      <point x="1151.0" y="391.0" type="qcurve" smooth="yes"/>
      <point x="1151.0" y="559.074074074074"/>
      <point x="876.0" y="721.1851851851852"/>
      <point x="656.0" y="721.1851851851852" type="qcurve" smooth="yes"/>
      <point x="478.0" y="721.1851851851852" type="line"/>
      <point x="478.0" y="795.8148148148148" type="line"/>
      <point x="645.0" y="795.8148148148148" type="line" smooth="yes"/>
      <point x="810.0" y="795.8148148148148"/>
      <point x="1084.0" y="939.9629629629629"/>
      <point x="1084.0" y="1111.037037037037" type="qcurve" smooth="yes"/>
      <point x="1084.0" y="1254.1851851851852"/>
      <point x="886.0" y="1406.0"/>
      <point x="709.0" y="1406.0" type="qcurve" smooth="yes"/>
      <point x="521.0" y="1406.0"/>
      <point x="317.0" y="1257.1851851851852"/>
      <point x="317.0" y="1105.0" type="qcurve" smooth="yes"/>
      <point x="317.0" y="1085.0" type="line"/>
      <point x="206.0" y="1085.0" type="line"/>
      <point x="206.0" y="1105.0" type="line" smooth="yes"/>
      <point x="206.0" y="1288.037037037037"/>
      <point x="467.0" y="1480.0"/>
      <point x="709.0" y="1480.0" type="qcurve" smooth="yes"/>
      <point x="941.0" y="1480.0"/>
      <point x="1197.0" y="1291.0"/>
      <point x="1197.0" y="1114.0" type="qcurve" smooth="yes"/>
      <point x="1197.0" y="963.9629629629629"/>
      <point x="1031.0" y="798.5925925925926"/>
      <point x="888.0" y="772.1851851851852" type="qcurve"/>
      <point x="888.0" y="768.1851851851852" type="line"/>
      <point x="1053.0" y="742.5925925925926"/>
      <point x="1266.0" y="564.0"/>
      <point x="1266.0" y="397.7962962962963" type="qcurve" smooth="yes"/>
      <point x="1266.0" y="202.0"/>
      <point x="968.0" y="-24.0"/>
      <point x="709.0" y="-24.0" type="qcurve" smooth="yes"/>
      <point x="436.0" y="-24.0"/>
      <point x="154.0" y="193.0"/>
    </contour>
  </outline>
</glyph>
<glyph name="F" format="2">
  <advance width="1274"/>
  <unicode hex="0046"/>
  <outline>
    <contour>
      <point x="230.0" y="0.0" type="line"/>
      <point x="230.0" y="1456.0" type="line"/>
      <point x="1253.0" y="1456.0" type="line"/>
      <point x="1253.0" y="1378.0" type="line"/>
      <point x="338.0" y="1378.0" type="line"/>
      <point x="338.0" y="773.0" type="line"/>
      <point x="1188.0" y="773.0" type="line"/>
      <point x="1188.0" y="695.0" type="line"/>
      <point x="338.0" y="695.0" type="line"/>
      <point x="338.0" y="0.0" type="line"/>
    </contour>
  </outline>
</glyph>
<glyph name="G" format="2">
  <advance width="1808"/>
  <unicode hex="0047"/>
  <outline>
    <contour>
      <point x="86.0" y="732.0" type="qcurve" smooth="yes"/>
      <point x="86.0" y="744.0" type="line" smooth="yes"/>
      <point x="86.0" y="1106.0"/>
      <point x="570.0" y="1479.0"/>
      <point x="946.3518518518518" y="1479.0" type="qcurve" smooth="yes"/>
      <point x="1288.0" y="1479.0"/>
      <point x="1672.4074074074074" y="1271.0740740740741"/>
      <point x="1707.0" y="1064.148148148148" type="qcurve" smooth="yes"/>
      <point x="1712.0" y="1034.148148148148" type="line"/>
      <point x="1599.0" y="1034.148148148148" type="line"/>
      <point x="1595.7962962962963" y="1048.148148148148" type="line" smooth="yes"/>
      <point x="1556.9444444444443" y="1224.2962962962963"/>
      <point x="1247.0" y="1400.2222222222222"/>
      <point x="944.7592592592592" y="1400.2222222222222" type="qcurve" smooth="yes"/>
      <point x="607.0" y="1400.2222222222222"/>
      <point x="200.0" y="1074.0"/>
      <point x="200.0" y="743.0" type="qcurve" smooth="yes"/>
      <point x="200.0" y="726.0" type="line" smooth="yes"/>
      <point x="200.0" y="380.27777777777777"/>
      <point x="612.2407407407408" y="53.77777777777778"/>
      <point x="957.4074074074074" y="53.77777777777778" type="qcurve" smooth="yes"/>
      <point x="1221.8518518518517" y="53.77777777777778"/>
      <point x="1573.5" y="158.77777777777777"/>
      <point x="1634.0" y="199.51851851851853" type="qcurve"/>
      <point x="1634.0" y="571.1851851851852" type="line"/>
      <point x="942.0" y="571.1851851851852" type="line"/>
      <point x="942.0" y="649.1851851851852" type="line"/>
      <point x="1742.0" y="649.1851851851852" type="line"/>
      <point x="1742.0" y="166.0" type="line"/>
      <point x="1650.0" y="103.0"/>
      <point x="1263.0" y="-22.0"/>
      <point x="952.0" y="-22.0" type="qcurve" smooth="yes"/>
      <point x="570.0" y="-22.0"/>
      <point x="86.0" y="352.0"/>
    </contour>
  </outline>
</glyph>
<glyph name="H" format="2">
  <advance width="1780"/>
  <unicode hex="0048"/>
  <outline>
    <contour>
      <point x="230.0" y="0.0" type="line"/>
      <point x="230.0" y="1456.0" type="line"/>
      <point x="340.0" y="1456.0" type="line"/>
      <point x="340.0" y="791.0" type="line"/>
      <point x="1440.0" y="791.0" type="line"/>
      <point x="1440.0" y="1456.0" type="line"/>
      <point x="1550.0" y="1456.0" type="line"/>
      <point x="1550.0" y="0.0" type="line"/>
      <point x="1440.0" y="0.0" type="line"/>
      <point x="1440.0" y="715.0" type="line"/>
      <point x="340.0" y="715.0" type="line"/>
      <point x="340.0" y="0.0" type="line"/>
    </contour>
  </outline>
</glyph>
<glyph name="R" format="2">
  <advance width="1485"/>
  <unicode hex="0052"/>
  <outline>
    <contour>
      <point x="230.0" y="0.0" type="line"/>
      <point x="230.0" y="1456.0" type="line"/>
      <point x="976.0" y="1456.0" type="line" smooth="yes"/>
      <point x="1184.0" y="1456.0"/>
      <point x="1404.0" y="1235.2407407407406"/>
      <point x="1404.0" y="1049.0925925925926" type="qcurve" smooth="yes"/>
      <point x="1404.0" y="866.9444444444445"/>
      <point x="1174.0" y="638.4074074074074"/>
      <point x="976.0" y="638.4074074074074" type="qcurve" smooth="yes"/>
      <point x="340.0" y="638.4074074074074" type="line"/>
      <point x="340.0" y="0.0" type="line"/>
    </contour>
    <contour>
      <point x="340.0" y="710.8148148148148" type="line"/>
      <point x="976.0" y="710.8148148148148" type="line" smooth="yes"/>
      <point x="1138.0" y="710.8148148148148"/>
      <point x="1292.0" y="900.9629629629629"/>
      <point x="1292.0" y="1048.0925925925926" type="qcurve" smooth="yes"/>
      <point x="1292.0" y="1198.2222222222222"/>
      <point x="1137.0" y="1381.5925925925926"/>
      <point x="976.0" y="1381.5925925925926" type="qcurve" smooth="yes"/>
      <point x="340.0" y="1381.5925925925926" type="line"/>
    </contour>
    <contour>
      <point x="1392.0" y="0.0" type="line"/>
      <point x="952.7777777777778" y="669.6481481481482" type="line"/>
      <point x="1076.574074074074" y="669.6481481481482" type="line"/>
      <point x="1523.0" y="0.0" type="line"/>
    </contour>
  </outline>
</glyph>
<glyph name="bracketleft" format="2">
  <advance width="741"/>
  <unicode hex="005B"/>
  <outline>
    <contour>
      <point x="230.0" y="-310.0" type="line"/>
      <point x="230.0" y="1456.0" type="line"/>
      <point x="711.0" y="1456.0" type="line"/>
      <point x="711.0" y="1396.4074074074074" type="line"/>
      <point x="339.0" y="1396.4074074074074" type="line"/>
      <point x="339.0" y="-250.4074074074074" type="line"/>
      <point x="711.0" y="-250.4074074074074" type="line"/>
      <point x="711.0" y="-310.0" type="line"/>
    </contour>
  </outline>
</glyph>
<glyph name="asciicircum" format="2">
  <advance width="1058"/>
  <unicode hex="005E"/>
  <outline>
    <contour>
      <point x="35.18518518518518" y="720.0" type="line"/>
      <point x="479.0" y="1456.0" type="line"/>
      <point x="580.0" y="1456.0" type="line"/>
      <point x="1022.8148148148148" y="720.0" type="line"/>
      <point x="942.3703703703704" y="720.0" type="line"/>
      <point x="529.0" y="1345.611111111111" type="line"/>
      <point x="115.62962962962962" y="720.0" type="line"/>
    </contour>
  </outline>
</glyph>
<glyph name="g" format="2">
  <advance width="1332"/>
  <unicode hex="0067"/>
  <outline>
    <contour>
      <point x="173.7962962962963" y="-299.7962962962963" type="qcurve"/>
      <point x="214.11111111111111" y="-228.35185185185185" type="line"/>
      <point x="274.1296296296296" y="-272.96296296296293"/>
      <point x="500.24074074074076" y="-356.81481481481484"/>
      <point x="661.9074074074074" y="-356.81481481481484" type="qcurve" smooth="yes"/>
      <point x="832.0" y="-356.81481481481484"/>
      <point x="1036.0" y="-148.7962962962963"/>
      <point x="1036.0" y="60.0" type="qcurve" smooth="yes"/>
      <point x="1036.0" y="120.0" type="line"/>
      <point x="979.0" y="59.407407407407405"/>
      <point x="770.0" y="-30.0"/>
      <point x="613.0" y="-30.0" type="qcurve" smooth="yes"/>
      <point x="373.0" y="-30.0"/>
      <point x="86.0" y="222.0"/>
      <point x="86.0" y="456.0" type="qcurve" smooth="yes"/>
      <point x="86.0" y="468.0" type="line" smooth="yes"/>
      <point x="86.0" y="690.0"/>
      <point x="368.0" y="944.0"/>
      <point x="616.0" y="944.0" type="qcurve" smooth="yes"/>
      <point x="781.0" y="944.0"/>
      <point x="998.0" y="837.5925925925926"/>
      <point x="1040.0" y="780.0" type="qcurve"/>
      <point x="1041.0" y="780.0" type="line"/>
      <point x="1041.0" y="914.0" type="line"/>
      <point x="1144.0" y="914.0" type="line"/>
      <point x="1144.0" y="110.0" type="line" smooth="yes"/>
      <point x="1144.0" y="-177.0"/>
      <point x="870.0" y="-426.0"/>
      <point x="653.5925925925926" y="-426.0" type="qcurve" smooth="yes"/>
      <point x="486.5925925925926" y="-426.0"/>
      <point x="243.59259259259258" y="-352.0"/>
    </contour>
    <contour>
      <point x="194.0" y="459.0" type="line" smooth="yes"/>
      <point x="194.0" y="261.24074074074076"/>
      <point x="398.0" y="48.22222222222223"/>
      <point x="616.0" y="48.22222222222223" type="qcurve" smooth="yes"/>
      <point x="786.0" y="48.22222222222223"/>
      <point x="1000.0" y="163.42592592592592"/>
      <point x="1036.0" y="227.62962962962962" type="qcurve"/>
      <point x="1036.0" y="692.3703703703703" type="line"/>
      <point x="990.0" y="760.574074074074"/>
      <point x="769.0" y="865.7777777777778"/>
      <point x="619.0" y="865.7777777777778" type="qcurve" smooth="yes"/>
      <point x="394.0" y="865.7777777777778"/>
      <point x="194.0" y="641.7592592592592"/>
      <point x="194.0" y="468.0" type="qcurve" smooth="yes"/>
    </contour>
  </outline>
</glyph>
<glyph name="n" format="2">
  <advance width="1283"/>
  <unicode hex="006E"/>
  <anchor x="670.0" y="914.0" name="top"/>
  <outline>
    <contour>
      <point x="188.0" y="0.0" type="line"/>
      <point x="188.0" y="914.0" type="line"/>
      <point x="291.0" y="914.0" type="line"/>
      <point x="291.0" y="740.0" type="line"/>
      <point x="292.0" y="740.0" type="line"/>
      <point x="340.0" y="806.3888888888889"/>
      <point x="573.0" y="947.0"/>
      <point x="729.0" y="947.0" type="qcurve" smooth="yes"/>
      <point x="916.0" y="947.0"/>
      <point x="1115.0" y="748.3817736311375"/>
      <point x="1115.0" y="576.3703703703703" type="qcurve" smooth="yes"/>
      <point x="1115.0" y="0.0" type="line"/>
      <point x="1007.0" y="0.0" type="line"/>
      <point x="1007.0" y="564.3703703703703" type="line" smooth="yes"/>
      <point x="1007.0" y="699.0256895193065"/>
      <point x="868.0" y="865.5925925925926"/>
      <point x="731.0" y="865.5925925925926" type="qcurve" smooth="yes"/>
      <point x="575.0" y="865.5925925925926"/>
      <point x="348.0" y="728.7777777777778"/>
      <point x="296.0" y="636.3703703703703" type="qcurve"/>
      <point x="296.0" y="0.0" type="line"/>
    </contour>
  </outline>
</glyph>
<glyph name="r" format="2">
  <advance width="904"/>
  <unicode hex="0072"/>
  <outline>
    <contour>
      <point x="188.0" y="0.0" type="line"/>
      <point x="188.0" y="914.0" type="line"/>
      <point x="290.0" y="914.0" type="line"/>
      <point x="290.0" y="693.0" type="line"/>
      <point x="292.0" y="693.0" type="line"/>
      <point x="342.0" y="790.0"/>
      <point x="573.0" y="947.0"/>
      <point x="727.0" y="947.0" type="qcurve" smooth="yes"/>
      <point x="796.0" y="947.0"/>
      <point x="877.0" y="927.0"/>
      <point x="906.0" y="914.0" type="qcurve"/>
      <point x="906.0" y="835.2592592592592" type="line"/>
      <point x="876.0" y="848.2592592592592"/>
      <point x="793.0" y="868.074074074074"/>
      <point x="721.0" y="868.074074074074" type="qcurve" smooth="yes"/>
      <point x="582.0" y="868.074074074074"/>
      <point x="353.0" y="711.4074074074074"/>
      <point x="295.0" y="597.3703703703703" type="qcurve"/>
      <point x="295.0" y="0.0" type="line"/>
    </contour>
  </outline>
</glyph>
<glyph name="s" format="2">
  <advance width="1235"/>
  <unicode hex="0073"/>
  <outline>
    <contour>
      <point x="108.0" y="314.0" type="line"/>
      <point x="214.0" y="314.0" type="line"/>
      <point x="214.0" y="271.5740740740741" type="line" smooth="yes"/>
      <point x="214.0" y="156.14814814814815"/>
      <point x="434.22222222222223" y="47.62962962962963"/>
      <point x="632.7222222222222" y="47.62962962962963" type="qcurve" smooth="yes"/>
      <point x="830.574074074074" y="47.62962962962963"/>
      <point x="1044.425925925926" y="150.3148148148148"/>
      <point x="1044.2222222222222" y="247.01851851851853" type="qcurve" smooth="yes"/>
      <point x="1044.0185185185185" y="335.7037037037037"/>
      <point x="898.1111111111111" y="410.5740740740741"/>
      <point x="617.0" y="442.0" type="qcurve" smooth="yes"/>
      <point x="332.0" y="473.0"/>
      <point x="130.0" y="571.0"/>
      <point x="130.0" y="690.0" type="qcurve" smooth="yes"/>
      <point x="130.0" y="821.0"/>
      <point x="397.0" y="942.0"/>
      <point x="615.0" y="942.0" type="qcurve" smooth="yes"/>
      <point x="834.0" y="942.0"/>
      <point x="1092.0" y="811.0"/>
      <point x="1092.0" y="680.0" type="qcurve" smooth="yes"/>
      <point x="1092.0" y="627.0" type="line"/>
      <point x="987.0" y="627.0" type="line"/>
      <point x="987.0" y="675.0185185185185" type="line" smooth="yes"/>
      <point x="987.0" y="776.0925925925926"/>
      <point x="780.925925925926" y="865.3703703703703"/>
      <point x="599.925925925926" y="865.3703703703703" type="qcurve" smooth="yes"/>
      <point x="420.9259259259259" y="865.3703703703703"/>
      <point x="226.77777777777777" y="789.3333333333334"/>
      <point x="226.77777777777777" y="709.7777777777778" type="qcurve" smooth="yes"/>
      <point x="226.77777777777777" y="632.4629629629629"/>
      <point x="374.0" y="568.0"/>
      <point x="647.0" y="537.0" type="qcurve" smooth="yes"/>
      <point x="957.0" y="502.0"/>
      <point x="1139.0" y="390.0"/>
      <point x="1139.0" y="280.0" type="qcurve" smooth="yes"/>
      <point x="1139.0" y="140.0"/>
      <point x="882.0" y="-30.0"/>
      <point x="636.0" y="-30.0" type="qcurve" smooth="yes"/>
      <point x="368.0" y="-30.0"/>
      <point x="108.0" y="126.0"/>
      <point x="108.0" y="261.0" type="qcurve" smooth="yes"/>
    </contour>
  </outline>
</glyph>
<glyph name="t" format="2">
  <advance width="779"/>
  <unicode hex="0074"/>
  <outline>
    <contour>
      <point x="3.0" y="834.7407407407408" type="line"/>
      <point x="3.0" y="914.0" type="line"/>
      <point x="759.0" y="914.0" type="line"/>
      <point x="759.0" y="834.7407407407408" type="line"/>
    </contour>
    <contour>
      <point x="266.0" y="282.0" type="qcurve" smooth="yes"/>
      <point x="266.0" y="883.4074074074074" type="line"/>
      <point x="266.0" y="890.3333333333334" type="line"/>
      <point x="266.0" y="1272.0" type="line"/>
      <point x="374.0" y="1272.0" type="line"/>
      <point x="374.0" y="302.0" type="line" smooth="yes"/>
      <point x="374.0" y="172.98148148148147"/>
      <point x="477.0" y="57.592592592592595"/>
      <point x="575.0" y="57.592592592592595" type="qcurve" smooth="yes"/>
      <point x="642.0" y="57.592592592592595"/>
      <point x="708.0" y="76.18518518518519"/>
      <point x="734.0" y="85.18518518518519" type="qcurve"/>
      <point x="757.0" y="11.962962962962964" type="line"/>
      <point x="730.0" y="0.7777777777777786"/>
      <point x="659.0" y="-20.0"/>
      <point x="568.0" y="-20.0" type="qcurve" smooth="yes"/>
      <point x="441.0" y="-20.0"/>
      <point x="266.0" y="126.0"/>
    </contour>
  </outline>
</glyph>
<glyph name="w" format="2">
  <advance width="1811"/>
  <unicode hex="0077"/>
  <outline>
    <contour>
      <point x="10.0" y="914.0" type="line"/>
      <point x="125.0" y="914.0" type="line"/>
      <point x="455.31481481481484" y="107.24074074074073" type="line" smooth="yes"/>
      <point x="462.31481481481484" y="90.24074074074073"/>
      <point x="469.1111111111111" y="73.24074074074073"/>
      <point x="475.31481481481484" y="57.24074074074073" type="qcurve"/>
      <point x="477.31481481481484" y="57.24074074074073" type="line"/>
      <point x="484.31481481481484" y="73.24074074074073"/>
      <point x="493.1296296296296" y="90.24074074074073"/>
      <point x="500.72222222222223" y="107.24074074074073" type="qcurve" smooth="yes"/>
      <point x="856.5185185185185" y="914.0" type="line"/>
      <point x="973.9629629629629" y="914.0" type="line"/>
      <point x="1336.2962962962963" y="109.11111111111111" type="line" smooth="yes"/>
      <point x="1345.9259259259259" y="88.03703703703704"/>
      <point x="1354.1296296296296" y="69.42592592592592"/>
      <point x="1359.1296296296296" y="56.425925925925924" type="qcurve"/>
      <point x="1361.1296296296296" y="56.425925925925924" type="line"/>
      <point x="1366.1296296296296" y="69.42592592592592"/>
      <point x="1374.351851851852" y="87.42592592592592"/>
      <point x="1382.3703703703704" y="106.66666666666666" type="qcurve" smooth="yes"/>
      <point x="1717.0" y="914.0" type="line"/>
      <point x="1797.537037037037" y="914.0" type="line"/>
      <point x="1416.9259259259259" y="0.0" type="line"/>
      <point x="1281.0" y="0.0" type="line"/>
      <point x="916.2407407407408" y="825.2962962962963" type="line" smooth="yes"/>
      <point x="910.6481481481482" y="836.8703703703703"/>
      <point x="905.2962962962963" y="845.9259259259259"/>
      <point x="902.2962962962963" y="854.9259259259259" type="qcurve"/>
      <point x="900.2962962962963" y="854.9259259259259" type="line"/>
      <point x="897.2962962962963" y="845.9259259259259"/>
      <point x="892.3333333333334" y="837.2777777777778"/>
      <point x="886.9444444444445" y="825.2962962962963" type="qcurve" smooth="yes"/>
      <point x="534.9259259259259" y="0.0" type="line"/>
      <point x="392.0" y="0.0" type="line"/>
    </contour>
  </outline>
</glyph>
<glyph name="x" format="2">
  <advance width="1060"/>
  <unicode hex="0078"/>
  <outline>
    <contour>
      <point x="0.18518518518518512" y="0.0" type="line"/>
      <point x="496.3333333333333" y="484.68518518518516" type="line"/>
      <point x="524.4444444444445" y="500.68518518518516" type="line"/>
      <point x="943.3703703703703" y="914.0" type="line"/>
      <point x="1040.8148148148148" y="914.0" type="line"/>
      <point x="566.462962962963" y="450.68518518518516" type="line"/>
      <point x="535.3518518518518" y="430.68518518518516" type="line"/>
      <point x="97.62962962962963" y="0.0" type="line"/>
    </contour>
    <contour>
      <point x="10.0" y="914.0" type="line"/>
      <point x="150.0" y="914.0" type="line"/>
      <point x="556.0" y="511.0" type="line"/>
      <point x="570.0" y="497.0" type="line"/>
      <point x="1070.0" y="0.0" type="line"/>
      <point x="930.0" y="0.0" type="line"/>
      <point x="501.0" y="426.0" type="line"/>
      <point x="485.0" y="442.0" type="line"/>
    </contour>
  </outline>
</glyph>
<glyph name="braceright" format="2">
  <advance width="748"/>
  <unicode hex="007D"/>
  <outline>
    <contour>
      <point x="36.0" y="-312.0" type="qcurve"/>
      <point x="36.0" y="-251.55555555555554" type="line"/>
      <point x="279.0" y="-251.55555555555554"/>
      <point x="412.0" y="-51.74074074074074"/>
      <point x="375.0" y="122.0" type="qcurve" smooth="yes"/>
      <point x="328.0" y="334.0" type="line" smooth="yes"/>
      <point x="309.0" y="418.0"/>
      <point x="381.0" y="546.0"/>
      <point x="480.0" y="574.0" type="qcurve"/>
      <point x="381.0" y="602.0"/>
      <point x="308.0" y="730.0"/>
      <point x="328.0" y="814.0" type="qcurve" smooth="yes"/>
      <point x="375.0" y="1026.0" type="line" smooth="yes"/>
      <point x="412.0" y="1199.7407407407406"/>
      <point x="279.0" y="1399.5555555555557"/>
      <point x="36.0" y="1399.5555555555557" type="qcurve"/>
      <point x="36.0" y="1460.0" type="line"/>
      <point x="320.0" y="1472.0"/>
      <point x="530.0" y="1226.0740740740741"/>
      <point x="484.0" y="1031.0" type="qcurve" smooth="yes"/>
      <point x="437.0" y="819.0" type="line" smooth="yes"/>
      <point x="409.0" y="689.3148148148148"/>
      <point x="531.0" y="605.8518518518518"/>
      <point x="636.0" y="605.8518518518518" type="qcurve"/>
      <point x="636.0" y="542.1481481481482" type="line"/>
      <point x="531.0" y="542.1481481481482"/>
      <point x="409.0" y="458.68518518518516"/>
      <point x="437.0" y="329.0" type="qcurve" smooth="yes"/>
      <point x="484.0" y="117.0" type="line" smooth="yes"/>
      <point x="530.0" y="-78.07407407407408"/>
      <point x="320.0" y="-322.0"/>
    </contour>
  </outline>
</glyph>
<glyph name="idotless" format="2">
  <advance width="495"/>
  <outline>
    <contour>
      <point x="194.0" y="0.0" type="line"/>
      <point x="194.0" y="914.0" type="line"/>
      <point x="301.0" y="914.0" type="line"/>
      <point x="301.0" y="0.0" type="line"/>
    </contour>
  </outline>
</glyph>
